<svg id="Layer_1" data-name="Layer 1" xmlns="http://www.w3.org/2000/svg" viewBox="0 0 100 100"><defs><style>.cls-1,.cls-2{fill:#38c4bd;}.cls-1{stroke:#000;stroke-miterlimit:10;stroke-width:4px;}</style></defs><title>Artboard 1</title><circle class="cls-1" cx="50.33" cy="57.98" r="34.02"/><path class="cls-2" d="M17.82,44.11a33.05,33.05,0,0,1,66,0Z"/><path d="M50.82,14.8A31.1,31.1,0,0,1,81.65,42.11H20A31.09,31.09,0,0,1,50.82,14.8m0-4a35.05,35.05,0,0,0-35,35.05c0,.08,0,.17,0,.26H85.87v-.26a35,35,0,0,0-35.05-35Z"/><rect class="cls-2" x="11.45" y="43.89" width="77.17" height="7.07"/><path d="M86.62,45.89V49H13.45V45.89H86.62m4-4H9.45V53H90.62V41.89Z"/><rect class="cls-2" x="43.07" y="7" width="13.92" height="25.51"/><path d="M55,9V30.51H45.07V9H55m4-4H41.07V34.51H59V5Z"/></svg>